<svg xmlns="http://www.w3.org/2000/svg" xmlns:xlink="http://www.w3.org/1999/xlink" width="46" height="40" viewBox="0 0 46 40"><defs><path id="gnafa" d="M1343.5 406.89h-6a1.5 1.5 0 0 1-1.5-1.5v-6.01c0-.83.67-1.5 1.5-1.5h6c.83 0 1.5.67 1.5 1.5v6c0 .83-.67 1.5-1.5 1.5m-9 19.12h-6a1.5 1.5 0 0 1-1.5-1.5v-6c0-.83.67-1.5 1.5-1.5h6c.83 0 1.5.67 1.5 1.5v6c0 .83-.67 1.5-1.5 1.5m-12 0h-6a1.5 1.5 0 0 1-1.5-1.5v-6c0-.83.67-1.5 1.5-1.5h6c.83 0 1.5.67 1.5 1.5v6c0 .83-.67 1.5-1.5 1.5m30-32c.83 0 1.5.67 1.5 1.5v37c0 .83-.67 1.5-1.5 1.5h-2a1.5 1.5 0 0 1-1.5-1.5V431h-36v1.5c0 .83-.67 1.5-1.5 1.5h-2a1.5 1.5 0 0 1-1.5-1.5v-37c0-.83.67-1.5 1.5-1.5h2c.83 0 1.5.67 1.5 1.5V408h36v-12.5c0-.83.67-1.5 1.5-1.5zm-39.5 33h36v-15h-36z"/></defs><g><g opacity="1" transform="translate(-1308 -394)"><use fill="#13223a" fill-opacity="1" xlink:href="#gnafa"/></g></g></svg>