<svg xmlns="http://www.w3.org/2000/svg" xmlns:xlink="http://www.w3.org/1999/xlink" width="50" height="40" viewBox="0 0 50 40"><defs><path id="mpvwa" d="M896.91 400c1.7 0 3.09 1.4 3.09 3.15v19.7a3.12 3.12 0 0 1-3.09 3.15h-5.9v-4H895c.5 0 1-.5 1-1v-16c0-.5-.5-1-1-1h-40c-.49 0-1 .5-1 1v16c0 .5.5 1 1 1h28v4h-29.92c-1.7 0-3.08-1.4-3.08-3.15v-19.7a3.12 3.12 0 0 1 3.08-3.15zm-1 30.51c.63.26 1.09.9 1.09 1.61l-.02.24-.9 6.15c-.14.85-.83 1.49-1.73 1.49h-8.15c-.5 0-.95-.2-1.27-.51l-5.93-5.77.95-.93c.24-.23.57-.39.95-.39.1 0 .19.03.28.04l3.82.84v-12.53c0-.97 1-1.75 2-1.75s2 .78 2 1.75v7h.81c.23 0 .45.05.65.13z"/></defs><g><g opacity="1" transform="translate(-850 -400)"><use fill="#13223a" fill-opacity="1" xlink:href="#mpvwa"/></g></g></svg>