<svg xmlns="http://www.w3.org/2000/svg" xmlns:xlink="http://www.w3.org/1999/xlink" width="40" height="40" viewBox="0 0 40 40"><defs><path id="y6f7a" d="M1192.75 414.13a13.89 13.89 0 1 0-27.8 0 13.89 13.89 0 1 0 27.8 0zm3.99 0a17.88 17.88 0 1 1-35.76 0 17.88 17.88 0 0 1 35.76 0zm-16.88.5l7.95 4.7-1.5 2.44-9.44-5.66V404.2h2.99zm-18.3-11.94l-2.56-3.04 9.14-7.65 2.54 3.04zm34.6.02l-9.14-7.67 2.57-3.04 9.13 7.67z"/></defs><g><g opacity="1" transform="translate(-1159 -392)"><use fill="#13223a" fill-opacity="1" xlink:href="#y6f7a"/></g></g></svg>